<svg xmlns="http://www.w3.org/2000/svg" viewBox="0 0 120 120" fill="none">
  <defs>
    <style>
      .line { stroke: #111; stroke-width: 5; stroke-linecap: round; stroke-linejoin: round; }
      .node { fill: #fff; stroke: #111; stroke-width: 4; }
      .ring { fill: #fff; stroke: #111; stroke-width: 5; }
      .core { fill: #111; }
      .mark { fill: #fff; font-family: Arial, sans-serif; font-size: 30px; font-weight: 700; text-anchor: middle; dominant-baseline: middle; }
    </style>
  </defs>

  <polygon class="line" points="60,12 102,36 102,84 60,108 18,84 18,36" />
  <line class="line" x1="60" y1="12" x2="60" y2="30" />
  <line class="line" x1="102" y1="36" x2="86" y2="46" />
  <line class="line" x1="102" y1="84" x2="86" y2="74" />
  <line class="line" x1="60" y1="108" x2="60" y2="90" />
  <line class="line" x1="18" y1="84" x2="34" y2="74" />
  <line class="line" x1="18" y1="36" x2="34" y2="46" />

  <circle class="node" cx="60" cy="12" r="5.5" />
  <circle class="node" cx="102" cy="36" r="5.5" />
  <circle class="node" cx="102" cy="84" r="5.5" />
  <circle class="node" cx="60" cy="108" r="5.5" />
  <circle class="node" cx="18" cy="84" r="5.5" />
  <circle class="node" cx="18" cy="36" r="5.5" />

  <circle class="ring" cx="60" cy="60" r="28" />
  <circle class="core" cx="60" cy="60" r="23" />
  <text class="mark" x="60" y="61">B</text>
</svg>
